<svg version="1.2" xmlns="http://www.w3.org/2000/svg" viewBox="0 0 184 144" width="184" height="144">
	<title>format-interstitial-svg</title>
	<defs>
		<filter x="-50%" y="-50%" width="200%" height="200%" id="f1" ><feDropShadow dx="-1.2246467991473532e-16" dy="2" stdDeviation="2.0833333333333335" flood-color="#770000" flood-opacity=".6"/></filter>
		<filter x="-50%" y="-50%" width="200%" height="200%" id="f2" ><feDropShadow dx="-1.2246467991473532e-16" dy="2" stdDeviation="2.0833333333333335" flood-color="#770000" flood-opacity=".6"/></filter>
	</defs>
	<style>
		.s0 { filter: url(#f1);fill: #000000 } 
		.s1 { filter: url(#f2);fill: #77909d } 
		.s2 { fill: #5f7d8c } 
		.s3 { fill: #77909d } 
		.s4 { fill: #b0bec5 } 
		.s5 { fill: #ffffff } 
		.s6 { fill: #ffecb3 } 
		.s7 { fill: #b2ebf2 } 
		.s8 { fill: #00838f } 
		.s9 { fill: #00acc1 } 
		.s10 { fill: #26c6da } 
		.s11 { fill: none;stroke: #26c6da;stroke-linecap: round;stroke-linejoin: round;stroke-width: 2 } 
	</style>
	<g id="Page-1">
		<g id="format-interstitial">
			<g id="interstitial">
				<g id="phone">
					<g id="shadow">
						<path id="path-1" fill-rule="evenodd" class="s0" d="m76.5 22.1c-1.8-1.3-4.8-1.5-6.8-0.5l-55.1 28.9c-2 1-2.1 2.9-0.4 4.3l94.2 74c1.7 1.4 4.5 1.5 6.3 0.3l54.9-36.8c1.8-1.2 1.9-3.2 0.1-4.5"/>
						<path id="path-1" fill-rule="evenodd" class="s1" d="m76.5 22.1c-1.8-1.3-4.8-1.5-6.8-0.5l-55.1 28.9c-2 1-2.1 2.9-0.4 4.3l94.2 74c1.7 1.4 4.5 1.5 6.3 0.3l54.9-36.8c1.8-1.2 1.9-3.2 0.1-4.5"/>
					</g>
					<path id="Combined-Shape" fill-rule="evenodd" class="s2" d="m156.7 78.8l14.6 3.5v7.8c0.1 0.9-0.3 1.8-1.4 2.5l-55.3 36.8c-1.8 1.2-4.7 1.1-6.4-0.2l-94.8-74.1c-0.9-0.7-1.3-1.5-1.2-2.3v-7.9l9 2.1 48.2-25c1.9-1.1 4.9-0.9 6.7 0.4z"/>
					<path id="Combined-Shape" fill-rule="evenodd" class="s3" d="m21.2 47l48.2-25c1.9-1.1 4.9-0.9 6.7 0.4l80.6 56.4 14.6 3.5v7.8c0.1 0.9-0.3 1.8-1.4 2.5l-55.3 36.8c-1 0.7-2.3 0.9-3.6 0.8v-8.6l-98-76.5zm87.6 82.5q-0.3-0.2-0.5-0.4l-8.1-6.2z"/>
					<path id="phone-" fill-rule="evenodd" class="s4" d="m76.1 14.6c-1.8-1.2-4.8-1.4-6.7-0.4l-55.6 28.9c-1.9 1-2.1 2.9-0.4 4.2l94.8 74.1c1.7 1.3 4.6 1.4 6.4 0.2l55.3-36.7c1.9-1.3 1.9-3.3 0.1-4.5"/>
					<path id="screen" class="s5" d="m85.6 21.3l-62.8 33.2 75.9 59.4 61.7-40.3z"/>
					<path id="banner-shade" class="s6" d="m38.9 67.1l23.6 18.5 62.1-37.1-23.9-16.6-61.8 35.2z"/>
				</g>
				<g id="intersitial">
					<path id="shade" class="s7" d="m86.7 22.9l-59.9 34.8 67.6 52.9 62-39.9z"/>
					<path id="Combined-Shape" class="s8" d="m29.8 46.9l57.9-31.4 62.9 44 5 0.5v3l-61.5 40.4-68.9-53.9h-0.1v-3l4.7 0.4z"/>
					<path id="magic-mirror" class="s9" d="m87.7 12.5l-62.6 34 69 53.9 61.5-40.4z"/>
					<path id="Path-11-Copy-2" fill-rule="evenodd" class="s10" d="m131.1 54.6c1.4-0.9 3.7-0.9 5.1 0l4.3 2.8c1.4 0.9 1.4 2.3 0 3.2l-45.6 28.5c-1.4 0.9-3.6 0.8-4.9-0.2l-4.3-3.4c-1.3-1-1.2-2.5 0.2-3.4z"/>
					<path id="Combined-Shape" class="s11" d="m123 48.5l-44-9.5 7.4 17.4h-18.8l9.9 18.7zm-37.5-24.5c3 0 5.5 2 5.5 4.4 0 2.4-2.5 4.3-5.5 4.3-3.1 0-5.5-1.9-5.5-4.3 0-2.4 2.4-4.4 5.5-4.4z"/>
				</g>
			</g>
		</g>
	</g>
</svg>