<svg version="1.2" xmlns="http://www.w3.org/2000/svg" viewBox="0 0 184 144" width="184" height="144">
	<title>format-rewarded-svg</title>
	<defs>
		<filter x="-50%" y="-50%" width="200%" height="200%" id="f1" ><feDropShadow dx="-1.2246467991473532e-16" dy="2" stdDeviation="2.0833333333333335" flood-color="#770000" flood-opacity=".6"/></filter>
		<filter x="-50%" y="-50%" width="200%" height="200%" id="f2" ><feDropShadow dx="-1.2246467991473532e-16" dy="2" stdDeviation="2.0833333333333335" flood-color="#770000" flood-opacity=".6"/></filter>
	</defs>
	<style>
		.s0 { filter: url(#f1);fill: #000000 } 
		.s1 { filter: url(#f2);fill: #77909d } 
		.s2 { fill: #5f7d8c } 
		.s3 { fill: #77909d } 
		.s4 { fill: #b0bec5 } 
		.s5 { fill: #ffffff } 
		.s6 { fill: #ffecb3 } 
		.s7 { fill: #b1dfdb } 
		.s8 { fill: #00695c } 
		.s9 { fill: #008a7b } 
		.s10 { fill: #48b6ac } 
	</style>
	<g id="Page-1">
		<g id="format-rewarded-interstitial-">
			<g id="rewarded-interstitial-">
				<g id="phone">
					<g id="shadow">
						<path id="path-1" fill-rule="evenodd" class="s0" d="m76.5 22.1c-1.8-1.3-4.8-1.5-6.8-0.5l-55.1 28.9c-2 1-2.1 2.9-0.4 4.3l94.2 74c1.7 1.4 4.5 1.5 6.3 0.3l54.9-36.8c1.8-1.2 1.9-3.2 0.1-4.5"/>
						<path id="path-1" fill-rule="evenodd" class="s1" d="m76.5 22.1c-1.8-1.3-4.8-1.5-6.8-0.5l-55.1 28.9c-2 1-2.1 2.9-0.4 4.3l94.2 74c1.7 1.4 4.5 1.5 6.3 0.3l54.9-36.8c1.8-1.2 1.9-3.2 0.1-4.5"/>
					</g>
					<path id="Combined-Shape" fill-rule="evenodd" class="s2" d="m156.7 78.8l14.6 3.5v7.8c0.1 0.9-0.3 1.8-1.4 2.5l-55.3 36.8c-1.8 1.2-4.7 1.1-6.4-0.2l-94.8-74.1c-0.9-0.7-1.3-1.5-1.2-2.3v-7.9l9 2.1 48.2-25c1.9-1.1 4.9-0.9 6.7 0.4z"/>
					<path id="Combined-Shape" fill-rule="evenodd" class="s3" d="m21.2 47l48.2-25c1.9-1.1 4.9-0.9 6.7 0.4l80.6 56.4 14.6 3.5v7.8c0.1 0.9-0.3 1.8-1.4 2.5l-55.3 36.8c-1 0.7-2.3 0.9-3.6 0.8v-8.6l-98-76.5zm87.6 82.5q-0.3-0.2-0.5-0.4l-8.1-6.2z"/>
					<path id="phone-" fill-rule="evenodd" class="s4" d="m76.1 14.6c-1.8-1.2-4.8-1.4-6.7-0.4l-55.6 28.9c-1.9 1-2.1 2.9-0.4 4.2l94.8 74.1c1.7 1.3 4.6 1.4 6.4 0.2l55.3-36.7c1.9-1.3 1.9-3.3 0.1-4.5"/>
					<path id="screen" class="s5" d="m85.6 21.3l-62.8 33.2 75.9 59.4 61.7-40.3z"/>
					<path id="banner-shade" class="s6" d="m38.9 67.1l23.6 18.5 62.1-37.1-23.9-16.6-61.8 35.2z"/>
				</g>
				<g id="reward">
					<path id="shade" class="s7" d="m86.7 22.9l-59.9 34.8 67.6 52.9 62-39.9z"/>
					<path id="Combined-Shape" class="s8" d="m29.8 46.9l57.9-31.4 62.9 44 5 0.5v3l-61.5 40.4-68.9-53.9h-0.1v-3l4.7 0.4z"/>
					<path id="magic-mirror" class="s9" d="m87.7 12.5l-62.6 34 69 53.9 61.5-40.4z"/>
					<path id="diamond" fill-rule="evenodd" class="s10" d="m94 32l-1.3 20.9c0 0.6-0.6 1.1-1.2 1.1l-33.4-0.7c-0.6 0-1-0.5-1.1-1l-1-10.8c0-0.5 0.2-0.9 0.6-1.1l21.8-12.3q0.4-0.2 0.8-0.1l13.9 2.8c0.5 0.1 0.9 0.6 0.9 1.2zm-5.2 0.2l-9.6-1.9-4.6 2.6 8.3 3zm2.8 0.9l-7.2 4.4 6.2 11.6zm-22.7 11.2l11.5-7-8.5-3-6.4 3.6zm2.7 1l17 4.7-6.1-11.4zm-12.6 5l8-4.8-3.4-6.5-5.3 3zm3.1 0.7l23.5 0.5-16.7-4.7z"/>
					<path id="play" fill-rule="evenodd" class="s10" d="m106.8 78c-7.6 0-13.7-5-13.7-11.3 0-6.2 6.1-11.2 13.7-11.2 7.6 0 13.7 5 13.7 11.3 0 6.2-6.1 11.2-13.7 11.2zm1.4-4.4l4.8-11.7-15.3 3.8z"/>
				</g>
			</g>
		</g>
	</g>
</svg>